<?xml version="1.0" standalone="no"?>
<!DOCTYPE svg PUBLIC "-//W3C//DTD SVG 20010904//EN"
 "http://www.w3.org/TR/2001/REC-SVG-20010904/DTD/svg10.dtd">
<svg version="1.0" xmlns="http://www.w3.org/2000/svg"
 width="525.000000pt" height="440.000000pt" viewBox="0 0 525.000000 440.000000"
 preserveAspectRatio="xMidYMid meet">
<metadata>
Created by potrace 1.16, written by Peter Selinger 2001-2019
</metadata>
<g transform="translate(0.000000,440.000000) scale(0.100000,-0.100000)"
fill="#c8a86f" stroke="none">
<path d="M2290 4144 c0 -33 26 -83 49 -92 25 -11 25 -11 1 -5 -46 11 -100 3
-150 -22 -27 -14 -65 -25 -83 -25 -48 0 -98 -11 -92 -20 8 -14 240 -23 263
-11 17 9 23 8 31 -6 15 -28 108 -25 138 5 13 13 21 28 17 33 -3 6 8 4 24 -5
42 -22 96 -22 88 0 -3 9 -6 18 -6 20 0 3 -4 2 -10 -1 -5 -3 -20 1 -32 9 -13 8
-43 17 -68 20 -25 2 -46 5 -47 5 -1 1 0 8 4 16 6 18 -12 35 -69 65 -38 20 -58
25 -58 14z"/>
<path d="M2904 4128 c-23 -11 -48 -34 -58 -52 -15 -27 -23 -33 -59 -35 -23 -1
-44 -6 -47 -10 -3 -5 -15 -11 -27 -15 -17 -5 -21 -3 -19 11 2 10 -12 33 -29
51 -25 27 -37 33 -54 27 -12 -3 -19 -10 -16 -15 3 -5 -4 -15 -14 -22 -18 -12
-18 -17 -8 -39 21 -40 28 -61 17 -54 -6 3 -10 2 -10 -4 0 -6 -16 -13 -35 -17
-19 -3 -35 -10 -35 -16 0 -5 -4 -6 -10 -3 -5 3 -10 1 -10 -6 0 -7 -3 -9 -7 -6
-3 4 -13 1 -21 -5 -22 -19 -63 -21 -417 -23 -181 -1 -334 -2 -340 -3 -15 -3
-12 -872 3 -941 7 -29 10 -57 7 -61 -3 -5 -1 -11 4 -14 5 -4 12 -25 16 -49 14
-83 98 -284 151 -363 11 -16 26 -41 33 -56 8 -15 22 -36 32 -47 10 -10 16 -22
13 -25 -2 -3 -1 -4 3 -1 12 9 42 -27 36 -43 -4 -10 -2 -14 2 -9 9 7 65 -40 65
-55 0 -5 23 -30 51 -56 28 -26 67 -62 86 -80 19 -17 38 -32 42 -32 4 0 31 -22
60 -50 29 -27 60 -50 67 -50 8 0 14 -5 14 -10 0 -6 3 -9 8 -8 10 3 65 -33 75
-49 5 -8 12 -11 16 -8 5 2 20 -6 35 -20 14 -13 26 -21 26 -17 0 4 4 3 8 -3 12
-16 50 -35 72 -35 21 0 60 18 71 33 3 5 9 8 13 8 19 -3 27 0 22 8 -3 5 16 19
42 32 26 13 51 30 55 37 4 6 15 12 22 12 8 0 15 5 15 10 0 6 7 10 15 10 7 0
19 8 24 18 6 9 11 14 11 11 0 -4 19 11 42 32 23 21 44 37 45 35 2 -2 23 15 47
38 24 23 57 52 73 66 29 27 112 122 126 146 5 8 13 12 18 8 5 -3 8 0 7 8 -2 7
3 12 10 10 8 -1 11 2 8 7 -4 5 7 25 24 44 16 19 30 39 30 44 0 5 9 19 21 32
12 12 22 28 23 34 2 7 23 53 47 102 25 50 53 119 63 155 9 36 20 72 23 80 3 8
7 22 8 30 22 144 25 225 23 610 l-3 425 -70 1 c-38 0 -201 2 -362 3 -284 3
-337 6 -329 20 3 4 -3 7 -13 8 -32 3 -121 47 -121 60 0 7 5 13 10 13 6 0 10
-5 10 -11 0 -7 10 -9 28 -4 15 4 38 9 51 11 14 3 29 8 34 11 6 3 8 2 4 -3 -7
-13 14 -40 38 -47 28 -9 120 7 118 20 -2 7 9 5 28 -4 25 -12 50 -14 142 -7 69
6 110 13 107 19 -6 12 -9 12 -72 14 -27 1 -53 7 -62 16 -8 9 -17 15 -18 14 -6
-4 -48 13 -48 19 0 4 -22 5 -49 4 l-49 -4 20 41 c18 36 18 62 0 60 -4 0 -25
-9 -48 -21z m-236 -216 c15 -10 47 -27 72 -37 101 -40 147 -44 442 -45 157 0
293 -3 302 -6 14 -5 16 -47 15 -368 0 -384 -5 -467 -35 -596 -3 -14 -5 -26 -5
-27 0 -2 -14 -45 -33 -97 -37 -103 -121 -266 -137 -266 -6 0 -8 -4 -5 -8 3 -5
-10 -25 -29 -45 -18 -19 -31 -37 -29 -40 3 -2 -7 -12 -22 -21 -14 -10 -23 -20
-20 -24 10 -9 -86 -102 -97 -95 -6 3 -7 1 -3 -5 3 -6 -16 -30 -45 -54 -28 -24
-61 -53 -72 -65 -11 -13 -26 -23 -33 -23 -6 0 -14 -7 -18 -15 -3 -8 -12 -15
-20 -15 -7 0 -16 -7 -20 -15 -3 -8 -12 -15 -21 -15 -8 0 -15 -5 -15 -11 0 -5
-4 -7 -10 -4 -5 3 -10 2 -10 -3 0 -10 -93 -72 -109 -72 -6 0 -11 -4 -11 -10 0
-5 -7 -10 -15 -10 -8 0 -15 -4 -15 -10 0 -5 -11 -12 -25 -16 -24 -6 -67 13
-90 42 -5 6 -22 14 -36 18 -15 3 -41 19 -58 35 -17 16 -31 27 -31 25 0 -3 -12
7 -27 21 -15 14 -34 25 -41 25 -7 0 -15 7 -18 15 -4 8 -12 15 -19 15 -7 0 -27
16 -44 35 -17 19 -34 35 -39 35 -13 0 -62 54 -62 69 0 7 -4 10 -8 7 -10 -6
-62 48 -62 64 0 6 -4 8 -10 5 -5 -3 -19 10 -31 29 -12 20 -26 36 -32 36 -6 0
-8 3 -4 6 3 3 -8 20 -24 36 -16 17 -29 35 -29 39 0 5 -9 18 -20 29 -12 12 -18
25 -15 30 4 6 1 10 -5 10 -17 0 -91 161 -84 185 4 14 3 16 -4 7 -9 -13 -30 37
-46 108 -4 14 -13 54 -22 90 -23 91 -34 898 -13 911 8 5 156 9 330 9 173 0
319 4 325 9 9 9 75 32 84 29 3 0 28 13 55 30 58 37 68 38 103 14z"/>
<path d="M2586 3789 c-32 -25 -34 -65 -6 -111 17 -28 18 -44 13 -122 -3 -50
-5 -100 -4 -111 3 -47 -1 -180 -5 -187 -9 -14 -61 -9 -74 7 -7 8 -16 12 -21 9
-5 -3 -9 0 -9 6 0 6 -4 9 -9 6 -11 -7 -53 39 -44 49 5 4 3 5 -3 2 -7 -4 -14 0
-18 8 -3 8 -10 15 -16 15 -6 0 -9 -4 -6 -9 4 -5 1 -11 -5 -13 -19 -6 -13 -58
10 -82 12 -12 18 -26 14 -31 -5 -4 -3 -5 4 -1 6 3 16 -1 21 -10 7 -13 5 -23
-9 -37 -30 -32 -34 -97 -10 -148 11 -24 20 -40 21 -34 0 5 12 -3 26 -18 14
-15 29 -25 35 -22 5 4 9 1 9 -6 0 -7 3 -9 6 -6 4 3 16 2 26 -4 24 -13 13 -28
-24 -31 -14 -1 -24 -7 -22 -13 2 -5 -6 -21 -19 -35 -21 -23 -23 -32 -17 -78 3
-28 15 -61 26 -74 35 -40 54 -58 54 -51 0 3 8 -1 18 -10 10 -10 22 -14 25 -10
4 3 7 1 7 -5 0 -7 -4 -12 -9 -12 -6 0 -22 -12 -38 -26 -23 -21 -27 -32 -25
-72 4 -78 7 -86 51 -120 37 -27 39 -38 9 -33 -5 0 -8 -2 -9 -7 0 -4 -2 -17 -5
-30 -2 -13 1 -33 7 -45 l12 -21 20 25 20 24 -6 -57 c-4 -41 -1 -62 9 -75 14
-17 15 -17 29 2 12 15 14 35 9 87 -4 46 -2 68 5 68 11 0 15 -13 12 -36 -1 -7
5 -14 13 -17 10 -4 15 4 19 26 3 25 -1 37 -20 55 l-24 22 27 0 c15 0 25 3 22
6 -3 3 4 16 17 30 13 14 26 40 29 59 7 35 -11 115 -25 115 -4 0 -9 7 -13 15
-6 16 30 65 49 65 31 0 62 103 45 154 -10 30 -68 95 -80 88 -2 -2 -6 0 -7 5
-3 8 55 37 70 34 4 0 7 4 7 10 0 5 5 7 12 3 6 -4 8 -3 5 3 -4 6 1 17 10 24 12
10 14 10 9 2 -4 -7 -5 -13 -2 -13 2 0 11 14 20 30 17 36 16 152 -2 158 -7 2
-9 9 -6 14 4 6 2 8 -3 5 -6 -4 -16 0 -23 8 -11 13 -8 17 18 26 19 6 36 23 46
44 21 43 20 47 -8 67 -23 17 -25 17 -40 -7 -9 -13 -16 -27 -16 -30 0 -3 -6
-21 -14 -39 -14 -34 -15 -34 -53 -25 -47 13 -54 13 -73 5 -23 -10 -17 420 6
445 10 11 15 31 13 56 -3 31 -9 40 -32 51 -40 16 -50 15 -81 -9z m-6 -629 c16
0 18 -10 17 -90 0 -52 -4 -85 -8 -78 -5 7 -9 10 -9 5 0 -11 -60 22 -60 33 0 6
-7 10 -15 10 -16 0 -35 30 -35 54 0 24 59 79 76 72 9 -3 24 -6 34 -6z m187
-19 c15 -11 22 -27 23 -48 0 -28 -7 -37 -59 -72 -32 -22 -61 -37 -65 -34 -3 4
-6 46 -6 94 l0 88 42 -5 c23 -4 53 -14 65 -23z m-137 -155 c0 -3 -4 -8 -10
-11 -5 -3 -10 -1 -10 4 0 6 5 11 10 11 6 0 10 -2 10 -4z m50 -21 c11 -14 10
-14 -12 -6 -14 5 -29 7 -34 3 -4 -4 -4 -1 0 6 10 17 31 15 46 -3z m26 -115 c7
0 20 -13 28 -28 13 -25 13 -32 1 -56 -8 -14 -15 -30 -17 -34 -2 -4 -7 -6 -11
-4 -4 1 -10 -5 -13 -13 -4 -8 -12 -15 -20 -15 -19 0 -20 156 -1 163 6 2 14 0
15 -4 2 -5 10 -9 18 -9z m-108 -59 c4 -80 -1 -97 -24 -79 -53 44 -56 49 -49
86 7 38 30 63 55 59 11 -2 16 -19 18 -66z m6 -248 c-2 -21 -3 -51 -3 -67 l-1
-29 -20 26 c-26 33 -25 56 3 84 12 12 22 22 23 22 0 1 0 -16 -2 -36z m93 -22
c2 -12 -6 -34 -17 -48 -21 -28 -22 -27 -24 49 -1 44 0 46 18 34 11 -7 21 -22
23 -35z"/>
<path d="M2390 3683 c0 -7 -12 -13 -27 -13 -30 0 -122 -27 -187 -55 -57 -24
-172 -22 -231 4 -57 25 -55 25 -55 3 0 -27 27 -60 72 -88 28 -18 37 -28 28
-34 -8 -5 -3 -13 19 -26 17 -10 31 -22 31 -27 0 -4 4 -6 9 -2 5 3 12 1 15 -4
3 -5 24 -7 46 -4 35 5 41 3 49 -20 14 -35 71 -53 122 -38 33 10 43 9 64 -5 25
-16 27 -16 47 4 17 17 25 18 44 10 13 -6 24 -14 24 -17 0 -3 14 -6 32 -5 40 1
80 45 76 82 -2 20 -11 28 -36 34 -18 5 -30 13 -27 18 4 6 1 10 -6 10 -9 0 -10
3 -2 11 26 26 -19 123 -65 140 -15 6 -30 16 -34 22 -6 9 -8 9 -8 0z m-5 -103
c4 -6 11 -7 17 -4 7 4 8 2 4 -4 -4 -7 -3 -12 2 -12 5 0 12 -11 14 -24 4 -19 1
-23 -11 -18 -20 7 -61 50 -61 63 0 12 27 12 35 -1z m65 -86 c0 -8 -19 -13 -24
-6 -3 5 1 9 9 9 8 0 15 -2 15 -3z"/>
<path d="M2813 3660 c-30 -12 -53 -61 -53 -113 0 -46 -11 -62 -45 -69 -14 -2
-21 -12 -23 -34 -6 -59 76 -95 131 -59 17 11 31 12 54 6 17 -5 34 -7 37 -3 3
3 6 1 6 -5 0 -15 131 -9 156 7 12 7 19 20 17 30 -4 14 4 16 55 16 47 0 63 5
80 22 12 12 27 22 33 22 6 0 9 7 5 15 -3 9 4 20 22 29 31 16 64 50 82 84 15
31 7 37 -29 22 -17 -6 -33 -11 -37 -10 -4 1 -10 -4 -14 -11 -11 -17 -145 -17
-190 0 -19 7 -44 16 -55 21 -105 40 -183 50 -232 30z m91 -79 c3 -4 -6 -18
-19 -31 -13 -13 -23 -26 -21 -29 2 -3 -7 -14 -20 -24 -26 -19 -34 -8 -9 13 8
7 15 22 15 34 0 35 39 62 54 37z m-99 -111 c-3 -5 -11 -10 -16 -10 -6 0 -7 5
-4 10 3 6 11 10 16 10 6 0 7 -4 4 -10z"/>
<path d="M1863 3313 c-27 -11 -12 -320 22 -456 20 -80 85 -237 128 -312 21
-37 91 -130 107 -142 8 -6 15 -15 15 -20 0 -17 164 -168 260 -239 55 -41 107
-80 115 -87 8 -6 31 -20 52 -29 21 -9 38 -21 38 -26 0 -12 32 -11 49 2 12 9
13 8 6 -4 -5 -8 4 -3 20 13 15 15 32 28 36 28 5 1 14 2 19 3 6 0 15 8 20 16 5
8 10 11 10 7 0 -4 10 1 22 12 11 11 26 18 31 14 6 -3 7 -2 4 4 -3 5 11 21 33
34 34 22 130 102 181 151 9 9 21 13 25 10 4 -4 4 -2 1 5 -4 6 7 23 25 38 18
15 36 36 41 47 4 11 15 22 25 25 11 2 27 22 36 44 10 21 22 39 27 39 5 0 9 7
9 15 0 8 4 15 9 15 5 0 12 11 15 25 4 14 11 25 16 25 6 0 10 7 10 15 0 8 5 15
11 15 5 0 7 5 4 10 -3 6 -1 10 5 10 6 0 8 5 5 10 -3 6 -2 10 2 10 5 0 9 8 10
18 1 9 11 39 22 65 50 116 82 315 80 493 l-1 101 -27 -1 -26 -1 -6 -155 c-3
-86 -9 -161 -13 -169 -5 -7 -9 -29 -11 -49 -2 -20 -5 -46 -8 -57 -3 -11 -8
-33 -12 -49 -23 -88 -116 -276 -137 -276 -6 0 -9 -3 -5 -6 9 -9 -50 -92 -95
-135 -21 -20 -38 -41 -38 -47 0 -7 -6 -12 -12 -12 -7 0 -37 -27 -67 -60 -29
-33 -58 -60 -63 -60 -6 0 -20 -10 -32 -23 -39 -43 -202 -147 -230 -147 -8 0
-25 10 -37 23 -12 12 -19 16 -14 9 4 -8 -11 -2 -34 13 -22 15 -41 32 -41 38 0
6 -3 8 -6 4 -11 -11 -94 53 -169 130 -39 40 -77 73 -83 73 -7 0 -12 3 -12 8 0
4 -20 29 -45 56 -63 67 -201 286 -180 286 2 0 -4 18 -16 39 -11 22 -21 50 -22
63 0 12 -5 26 -9 29 -18 12 -41 163 -47 314 -6 165 -9 175 -48 158z"/>
<path d="M4750 1430 c-25 -3 -55 -11 -67 -18 -13 -7 -23 -10 -23 -6 0 4 -9 -5
-21 -20 -11 -14 -24 -24 -28 -21 -14 8 -32 -127 -22 -162 5 -18 8 -33 5 -33
-6 0 26 -38 56 -66 14 -13 30 -24 36 -24 15 0 77 -31 85 -42 3 -5 10 -8 15 -7
14 2 54 -12 54 -20 0 -3 12 -12 28 -18 29 -13 57 -67 44 -87 -3 -6 -7 -17 -9
-25 -4 -27 -95 -65 -128 -54 -11 4 -28 7 -38 8 -9 1 -27 12 -38 24 -11 12 -24
19 -29 16 -5 -3 -12 6 -16 20 -3 14 -9 25 -13 25 -3 0 -12 15 -20 33 -32 73
-49 37 -43 -91 3 -57 6 -63 23 -59 10 3 19 1 19 -4 0 -4 6 -6 13 -3 7 2 40 -3
73 -12 68 -19 102 -19 170 0 27 7 56 15 64 17 8 2 21 12 28 22 7 9 19 14 25
11 7 -4 9 -4 5 1 -4 4 2 24 14 44 29 46 31 135 5 174 -10 15 -15 27 -12 27 3
0 -3 8 -12 18 -10 11 -21 17 -25 15 -4 -2 -11 4 -16 13 -5 9 -11 14 -13 12 -8
-6 -179 74 -179 84 0 5 -4 6 -10 3 -5 -3 -10 -1 -10 4 0 6 -6 11 -14 11 -7 0
-19 13 -26 29 -16 41 4 81 53 105 34 16 44 17 80 6 22 -6 49 -21 59 -33 11
-12 16 -15 12 -7 -5 10 0 9 14 -4 12 -11 27 -37 34 -58 6 -21 17 -38 24 -38
15 0 20 35 16 113 l-4 57 -33 0 c-19 0 -46 5 -62 11 -34 14 -83 17 -143 9z"/>
<path d="M308 1422 c-54 -1 -98 -6 -98 -11 0 -4 10 -13 23 -20 12 -7 27 -20
32 -30 6 -10 20 -37 33 -60 12 -22 20 -41 16 -41 -3 0 2 -7 10 -16 9 -8 16
-26 16 -39 0 -13 7 -31 16 -39 9 -9 17 -22 18 -29 1 -6 23 -57 50 -112 26 -55
63 -134 83 -176 28 -62 38 -76 53 -72 11 3 22 18 25 34 4 16 11 29 17 29 6 0
9 3 5 6 -3 4 0 13 8 21 8 8 15 23 15 33 0 10 23 68 50 129 28 61 50 115 50
121 0 5 5 10 11 10 5 0 8 3 5 8 -2 4 11 39 30 77 19 38 34 74 34 80 0 14 56
75 69 75 6 0 11 5 11 10 0 6 -36 10 -89 10 -50 0 -93 -4 -96 -10 -3 -5 1 -10
9 -10 8 0 20 -9 26 -21 12 -22 4 -79 -11 -79 -5 0 -9 -8 -9 -18 0 -24 -60
-165 -74 -174 -6 -4 -8 -8 -4 -8 8 0 -19 -69 -35 -88 -8 -11 -18 0 -43 50 -18
34 -33 71 -34 81 0 9 -4 17 -9 17 -5 0 -12 12 -17 28 -4 15 -8 29 -9 32 -5 15
-29 70 -46 102 -21 41 -17 64 12 73 27 9 24 25 -5 25 -13 0 -30 1 -38 3 -7 1
-57 1 -110 -1z"/>
<path d="M1083 1422 c-25 -4 -32 -22 -10 -22 8 0 21 -8 30 -18 15 -16 17 -49
17 -261 0 -262 -8 -311 -49 -311 -12 0 -21 -4 -21 -9 0 -12 146 -17 351 -13
l156 4 12 56 c21 94 22 103 15 113 -4 6 -11 6 -20 -2 -7 -6 -12 -15 -9 -19 3
-4 -12 -26 -33 -49 l-37 -41 -103 -2 c-76 -1 -106 2 -112 12 -11 18 -13 217
-1 224 5 3 44 3 86 -1 l78 -6 15 -39 c26 -67 40 -48 44 60 2 53 -1 106 -6 117
-8 18 -11 15 -27 -21 -13 -33 -23 -42 -49 -48 -46 -9 -122 -7 -139 3 -19 12
-12 198 9 212 8 5 53 8 100 7 93 -3 130 -22 130 -64 0 -23 25 -50 33 -37 3 5
7 40 8 78 l3 70 -35 2 c-63 4 -414 8 -436 5z"/>
<path d="M2708 1423 c-54 -2 -98 -8 -98 -13 0 -6 6 -10 13 -10 7 0 22 -7 33
-16 10 -8 12 -12 4 -8 -11 6 -11 2 2 -12 16 -18 18 -46 17 -250 0 -126 -3
-238 -5 -249 -3 -11 -18 -29 -34 -40 -17 -11 -30 -23 -30 -27 0 -8 185 -15
243 -9 40 3 50 18 17 23 -12 2 -20 7 -20 11 0 4 -6 15 -15 23 -13 13 -15 54
-15 265 0 236 1 250 20 269 11 11 28 20 37 20 30 0 0 17 -37 22 -19 2 -79 2
-132 1z"/>
<path d="M3358 1423 l-278 -3 0 -81 c0 -60 3 -80 13 -77 6 3 13 17 15 32 2 15
10 30 18 33 7 3 11 9 8 14 -3 5 2 6 10 3 9 -4 18 1 22 10 4 11 19 16 49 16 80
0 75 17 75 -256 0 -259 -5 -290 -47 -300 -13 -4 -23 -10 -23 -15 0 -9 51 -13
155 -12 113 2 117 3 113 16 -3 6 -9 12 -15 12 -5 0 -17 8 -26 17 -15 15 -17
46 -17 272 l0 256 26 6 c61 15 153 -19 140 -53 -3 -7 -1 -13 4 -13 6 0 10 -9
10 -20 0 -11 4 -20 9 -20 5 0 11 38 13 85 2 47 3 84 3 83 0 -2 -125 -4 -277
-5z"/>
<path d="M4012 1362 c-18 -37 -34 -78 -37 -91 -2 -14 -8 -27 -12 -30 -5 -3
-14 -24 -22 -46 -8 -22 -34 -83 -59 -135 -25 -52 -47 -103 -49 -113 -2 -10
-10 -25 -18 -34 -8 -8 -13 -19 -10 -24 4 -5 2 -9 -3 -9 -6 0 -13 -11 -16 -25
-4 -14 -11 -25 -17 -25 -11 0 -39 -25 -39 -34 0 -3 41 -6 90 -6 53 0 90 4 90
10 0 6 -4 10 -8 10 -5 0 -16 6 -26 13 -17 13 -17 16 5 81 l23 67 112 -2 112
-1 13 -30 c7 -17 12 -36 12 -44 0 -8 3 -14 7 -14 4 0 6 -8 5 -17 -4 -31 -17
-53 -31 -53 -8 0 -14 -4 -14 -10 0 -6 53 -10 140 -10 77 0 140 3 140 6 0 11
-28 33 -34 27 -3 -4 -6 -1 -6 5 0 6 -9 19 -19 29 -11 10 -21 27 -23 38 -1 11
-6 22 -9 25 -8 6 -166 359 -171 380 -2 8 -9 21 -16 28 -7 8 -10 18 -7 23 4 5
1 9 -5 9 -6 0 -9 4 -6 9 3 5 -1 14 -9 21 -8 7 -15 19 -15 26 0 8 -8 14 -17 13
-12 0 -29 -24 -51 -67z m34 -210 c4 -15 7 -30 6 -34 -1 -5 2 -8 6 -8 4 0 14
-16 21 -36 11 -30 11 -38 0 -45 -19 -12 -136 -11 -144 1 -3 6 -1 10 4 10 6 0
11 7 11 16 0 9 8 33 19 53 10 20 24 49 30 65 9 22 14 26 25 17 8 -7 17 -24 22
-39z"/>
<path d="M1790 1410 c0 -5 11 -12 25 -16 14 -3 30 -14 35 -24 6 -11 10 -124
10 -267 -1 -228 -2 -250 -19 -270 -11 -13 -26 -23 -35 -23 -35 0 -14 -20 22
-21 201 -4 236 -3 240 9 2 6 -1 12 -7 12 -5 0 -21 10 -35 23 -23 21 -24 29
-25 134 -1 107 -1 111 19 106 11 -3 31 -19 43 -35 12 -16 34 -43 48 -61 14
-18 24 -39 21 -47 -3 -8 -1 -12 3 -8 4 4 23 -14 42 -40 49 -65 71 -80 123 -87
25 -4 55 -10 67 -15 14 -6 25 -6 29 1 3 6 15 9 25 6 12 -3 19 0 19 9 0 8 -5
14 -11 14 -5 0 -7 5 -3 11 4 7 1 10 -7 7 -18 -6 -81 52 -75 69 3 7 -1 13 -10
13 -8 0 -20 12 -27 28 -6 15 -14 29 -17 32 -15 14 -65 86 -66 96 -1 6 18 21
41 34 37 20 46 31 61 79 10 31 17 59 17 62 -1 4 -4 19 -7 33 -6 36 -29 86 -38
86 -5 0 -16 8 -26 18 -10 10 -41 23 -71 30 -64 15 -411 17 -411 2z m325 -53
c11 -3 23 -6 28 -6 4 -1 7 -6 7 -12 0 -6 7 -17 15 -25 8 -9 15 -25 16 -37 0
-12 2 -30 4 -41 10 -51 -36 -103 -98 -110 -92 -10 -87 -18 -87 122 l0 124 48
-5 c26 -3 56 -7 67 -10z"/>
<path d="M935 480 c-11 -5 -31 -9 -45 -9 -25 -1 -25 -1 -25 -101 l0 -100 26 0
c22 0 25 3 21 29 -4 26 -1 29 40 35 23 4 48 8 54 8 6 1 11 6 12 12 1 6 4 23 8
38 7 33 -3 81 -16 73 -5 -3 -11 -1 -14 4 -3 5 -16 7 -28 3 -14 -3 -19 -2 -14
6 8 14 8 14 -19 2z m45 -59 c5 -11 10 -22 10 -24 0 -9 -62 -27 -71 -21 -10 6
-12 48 -2 57 13 14 53 6 63 -12z"/>
<path d="M3487 469 c-10 -13 -17 -27 -17 -31 0 -19 -64 -137 -71 -132 -4 2 -7
-5 -6 -16 1 -15 8 -20 29 -20 15 0 29 5 29 10 1 6 2 16 3 23 3 31 106 12 106
-20 0 -8 12 -13 30 -13 33 0 34 -8 -20 99 -13 24 -24 53 -25 65 -4 37 -5 39
-12 33 -3 -4 -11 1 -18 10 -11 14 -13 14 -28 -8z m33 -98 c0 -6 -4 -13 -10
-16 -5 -3 -10 1 -10 9 0 9 5 16 10 16 6 0 10 -4 10 -9z"/>
<path d="M1131 471 c-9 -6 -10 -11 -2 -15 7 -5 11 -42 11 -97 0 -88 0 -89 25
-89 20 0 25 5 26 28 1 15 1 30 1 33 -1 3 5 6 13 6 8 0 12 -4 9 -9 -3 -4 0 -8
5 -8 6 0 21 -11 33 -25 27 -31 69 -35 61 -6 -3 11 -11 22 -19 25 -19 7 -18 23
7 57 22 32 19 56 -10 83 -21 19 -137 31 -160 17z m125 -53 c4 -15 1 -25 -12
-35 -25 -18 -44 -16 -45 5 0 9 -2 25 -4 35 -5 27 52 23 61 -5z"/>
<path d="M1438 472 c-19 -4 -25 -22 -8 -22 15 0 13 -153 -2 -168 -9 -9 -2 -12
31 -12 33 0 41 3 33 13 -13 17 -15 156 -2 172 8 9 5 14 -12 17 -13 2 -31 2
-40 0z"/>
<path d="M1604 471 c-12 -8 -16 -31 -5 -31 5 0 14 -15 21 -32 30 -78 65 -138
80 -138 10 0 30 30 55 83 21 45 39 84 40 87 0 3 4 11 8 18 9 13 -16 28 -31 18
-5 -3 -21 -30 -36 -61 -14 -30 -30 -55 -35 -55 -9 0 -27 38 -23 52 1 3 -5 12
-13 18 -8 7 -15 18 -15 25 0 14 -33 26 -46 16z"/>
<path d="M1952 468 c-7 -7 -12 -18 -12 -25 0 -18 -52 -126 -65 -135 -5 -4 -6
-8 -1 -8 5 0 3 -7 -4 -15 -11 -13 -8 -15 14 -15 18 0 30 8 38 25 9 21 18 25
55 25 27 0 42 -4 38 -10 -3 -5 -1 -10 4 -10 6 0 10 -6 9 -12 -2 -8 10 -14 30
-16 l32 -3 -20 36 c-11 20 -18 40 -15 45 2 4 -1 13 -8 19 -7 5 -24 33 -37 61
-24 51 -37 59 -58 38z m23 -67 c-3 -5 -1 -12 4 -16 6 -3 8 -12 5 -20 -9 -22
-24 -7 -20 18 6 28 5 27 12 27 3 0 3 -4 -1 -9z"/>
<path d="M2153 463 c-3 -7 -2 -21 1 -30 6 -14 9 -15 15 -4 6 8 16 11 30 6 21
-6 22 -12 19 -86 -3 -79 -3 -79 22 -79 25 0 25 0 22 86 l-4 86 31 -4 c17 -3
32 -1 33 4 5 29 0 31 -80 33 -63 1 -85 -1 -89 -12z"/>
<path d="M2502 472 c-62 -2 -73 -5 -68 -18 3 -9 6 -54 6 -100 l0 -84 75 0 c61
0 75 3 75 16 0 8 5 12 11 8 7 -4 7 2 -1 16 -11 21 -13 21 -22 7 -6 -12 -22
-17 -53 -17 -41 0 -45 2 -45 25 0 14 6 26 13 26 23 2 52 -3 62 -12 7 -5 12 3
13 24 2 31 1 32 -40 32 -38 0 -43 3 -46 24 -4 23 -2 23 52 19 49 -4 56 -2 56
13 0 24 -3 24 -88 21z"/>
<path d="M2848 472 c-16 -2 -28 -10 -28 -18 0 -8 3 -14 8 -14 4 0 5 -38 3 -85
l-3 -85 33 0 c26 0 30 3 21 12 -7 7 -12 25 -12 40 0 27 2 28 45 28 25 0 46 -4
46 -10 1 -5 3 -14 4 -20 1 -5 3 -19 4 -30 1 -14 8 -20 24 -20 21 0 22 3 22
100 l0 100 -27 0 c-28 0 -47 -15 -26 -22 7 -3 9 -14 5 -30 -6 -24 -11 -26 -49
-25 -37 2 -43 5 -46 26 -2 13 2 27 10 32 19 12 -2 25 -34 21z"/>
<path d="M3134 471 c-2 -2 1 -10 7 -17 6 -8 9 -48 7 -98 l-3 -86 78 0 c69 0
77 2 77 19 0 10 -7 22 -16 25 -8 3 -12 2 -9 -4 4 -6 -12 -10 -40 -10 -45 0
-46 1 -43 28 3 25 6 27 46 24 38 -3 42 -1 42 20 0 20 -5 23 -42 23 -36 0 -43
3 -43 20 0 16 8 21 39 23 24 2 42 -2 47 -10 6 -9 9 -9 14 4 13 33 1 40 -79 41
-43 1 -80 0 -82 -2z"/>
<path d="M3934 471 c-2 -2 -4 -12 -4 -22 0 -13 8 -17 33 -15 l32 1 3 -82 c3
-80 4 -83 26 -83 23 0 24 2 22 83 l-1 82 28 0 c21 -1 27 4 27 20 0 18 -6 20
-81 20 -44 0 -82 -2 -85 -4z"/>
<path d="M4206 459 c12 -13 15 -37 12 -103 -3 -86 -3 -86 22 -86 24 0 25 3 22
46 l-4 45 46 -2 46 -3 0 -43 c0 -39 2 -43 25 -43 l25 0 0 100 0 100 -28 0
c-19 0 -29 -5 -29 -15 0 -8 4 -15 9 -15 5 0 8 -10 6 -22 -3 -20 -10 -23 -52
-26 l-49 -2 6 39 5 39 -39 4 c-35 3 -37 2 -23 -13z"/>
<path d="M3714 448 c3 -13 6 -58 6 -100 l0 -78 73 0 c68 0 74 2 72 20 -1 11
-7 26 -14 33 -10 9 -12 9 -9 -3 2 -10 -6 -15 -25 -16 -15 -1 -30 3 -33 8 -3 4
-10 6 -15 3 -5 -4 -9 24 -9 65 0 45 4 69 10 65 6 -3 10 1 10 9 0 12 -10 16
-36 16 -33 0 -36 -2 -30 -22z"/>
</g>
</svg>
